<svg width="67" height="67" xmlns="http://www.w3.org/2000/svg" xmlns:xlink="http://www.w3.org/1999/xlink" xml:space="preserve" overflow="hidden"><g transform="translate(-1422 -381)"><path d="M1476.86 392.865 1434.14 392.865C1432.83 392.872 1431.76 393.947 1431.77 395.265 1431.77 395.265 1431.77 395.265 1431.77 395.265L1431.77 424.117C1431.76 425.436 1432.83 426.51 1434.14 426.518 1434.14 426.518 1434.14 426.518 1434.14 426.518L1460.25 426.518 1469.74 436.135 1469.74 426.518 1476.86 426.518C1478.17 426.51 1479.24 425.436 1479.23 424.117 1479.23 424.117 1479.23 424.117 1479.23 424.117L1479.23 395.265C1479.24 393.947 1478.17 392.872 1476.86 392.865 1476.86 392.865 1476.86 392.865 1476.86 392.865ZM1444.33 413.104C1442.41 413.104 1440.84 411.542 1440.84 409.615 1440.84 407.687 1442.41 406.125 1444.33 406.125 1446.26 406.125 1447.82 407.687 1447.82 409.615 1447.82 411.542 1446.26 413.104 1444.33 413.104ZM1455.5 413.104C1453.57 413.104 1452.01 411.542 1452.01 409.615 1452.01 407.687 1453.57 406.125 1455.5 406.125 1457.43 406.125 1458.99 407.687 1458.99 409.615 1458.99 411.542 1457.43 413.104 1455.5 413.104ZM1466.67 413.104C1464.74 413.104 1463.18 411.542 1463.18 409.615 1463.18 407.687 1464.74 406.125 1466.67 406.125 1468.59 406.125 1470.16 407.687 1470.16 409.615 1470.16 411.542 1468.59 413.104 1466.67 413.104Z"/></g></svg>