<svg width="427" height="263" xmlns="http://www.w3.org/2000/svg" xmlns:xlink="http://www.w3.org/1999/xlink" xml:space="preserve" overflow="hidden"><defs><filter id="fx0" x="-10%" y="-10%" width="120%" height="120%" filterUnits="userSpaceOnUse" primitiveUnits="userSpaceOnUse"><feComponentTransfer color-interpolation-filters="sRGB"><feFuncR type="discrete" tableValues="0 0"/><feFuncG type="discrete" tableValues="0 0"/><feFuncB type="discrete" tableValues="0 0"/><feFuncA type="linear" slope="0.278431" intercept="0"/></feComponentTransfer><feGaussianBlur stdDeviation="6.05037 6.05037"/></filter><filter id="fx1" x="-10%" y="-10%" width="120%" height="120%" filterUnits="userSpaceOnUse" primitiveUnits="userSpaceOnUse"><feComponentTransfer color-interpolation-filters="sRGB"><feFuncR type="discrete" tableValues="0 0"/><feFuncG type="discrete" tableValues="0 0"/><feFuncB type="discrete" tableValues="0 0"/><feFuncA type="linear" slope="0.278431" intercept="0"/></feComponentTransfer><feGaussianBlur stdDeviation="6.05037 6.05037"/></filter><filter id="fx2" x="-10%" y="-10%" width="120%" height="120%" filterUnits="userSpaceOnUse" primitiveUnits="userSpaceOnUse"><feComponentTransfer color-interpolation-filters="sRGB"><feFuncR type="discrete" tableValues="0 0"/><feFuncG type="discrete" tableValues="0 0"/><feFuncB type="discrete" tableValues="0 0"/><feFuncA type="linear" slope="0.278431" intercept="0"/></feComponentTransfer><feGaussianBlur stdDeviation="6.01435 6.03984"/></filter><clipPath id="clip3"><rect x="4949" y="2216" width="427" height="263"/></clipPath></defs><g clip-path="url(#clip3)" transform="translate(-4949 -2216)"><g filter="url(#fx0)" transform="matrix(2.98214 0 0 2.98214 4989 2314)"><g transform="matrix(1 0 0 1 0 -1.13687e-13)"><path d="M37.1646 27.9405C37.1646 33.0334 33.0359 37.1621 27.943 37.1621 22.8501 37.1621 18.7215 33.0334 18.7215 27.9405 18.7215 22.8476 22.8501 18.719 27.943 18.719 33.0359 18.719 37.1646 22.8476 37.1646 27.9405Z" fill="#0070C0" fill-rule="evenodd"/></g></g><path d="M5170 2340.5C5170 2355.69 5157.69 2368 5142.5 2368 5127.31 2368 5115 2355.69 5115 2340.5 5115 2325.31 5127.31 2313 5142.5 2313 5157.69 2313 5170 2325.31 5170 2340.5Z" fill="#0070C0" fill-rule="evenodd"/><g filter="url(#fx1)" transform="matrix(2.98214 0 0 2.98214 5154 2314)"><g transform="matrix(1 0 0 1 0 -1.13687e-13)"><path d="M37.1646 27.9405C37.1646 33.0334 33.0359 37.1621 27.943 37.1621 22.8501 37.1621 18.7215 33.0334 18.7215 27.9405 18.7215 22.8476 22.8501 18.719 27.943 18.719 33.0359 18.719 37.1646 22.8476 37.1646 27.9405Z" fill="#0070C0" fill-rule="evenodd"/></g></g><path d="M5335 2340.5C5335 2355.69 5322.69 2368 5307.5 2368 5292.31 2368 5280 2355.69 5280 2340.5 5280 2325.31 5292.31 2313 5307.5 2313 5322.69 2313 5335 2325.31 5335 2340.5Z" fill="#0070C0" fill-rule="evenodd"/><g filter="url(#fx2)" transform="matrix(3 0 0 2.98734 4948 2217)"><g><path d="M58.648 37.1345 58.648 23.2984 74.32 23.2984C75.5783 23.2984 76.7222 23.7596 77.5231 24.682L89.8776 37.1345 58.648 37.1345ZM54.0723 37.1345 25.1307 37.1345 37.4852 24.682C38.4004 23.7596 39.5443 23.2984 40.6882 23.2984L54.0723 23.2984 54.0723 37.1345ZM107.837 37.1345 98.3427 37.1345C97.0844 37.1345 95.9404 36.6733 95.1397 35.7509L80.7261 21.3382C79.0101 19.6088 76.7222 18.6864 74.2056 18.6864L40.6882 18.6864C38.2859 18.6864 35.8837 19.6088 34.1677 21.3382L19.9829 35.7509C19.0677 36.6733 18.6102 37.8263 18.6102 39.0947L18.6102 50.9707C18.6102 56.0439 22.7283 60.1947 27.7617 60.1947L28.9056 60.1947C28.9056 53.1614 34.511 47.5116 41.4889 47.5116 48.467 47.5116 54.0723 53.1614 54.0723 60.1947L83.8147 60.1947C83.8147 53.1614 89.42 47.5116 96.398 47.5116 103.376 47.5116 108.981 53.1614 108.981 60.1947L114.701 60.1947C117.218 60.1947 119.277 58.1193 119.277 55.5827L119.277 48.6646C119.277 42.3231 114.129 37.1345 107.837 37.1345Z" fill="#0070C0" fill-rule="evenodd"/></g></g><path d="M5194.11 2271.11 5194.11 2229.78 5241.13 2229.78C5244.9 2229.78 5248.34 2231.16 5250.74 2233.91L5287.8 2271.11 5194.11 2271.11ZM5180.39 2271.11 5093.56 2271.11 5130.62 2233.91C5133.37 2231.16 5136.8 2229.78 5140.23 2229.78L5180.39 2229.78 5180.39 2271.11ZM5341.68 2271.11 5313.2 2271.11C5309.42 2271.11 5305.99 2269.73 5303.59 2266.98L5260.35 2223.92C5255.2 2218.76 5248.34 2216 5240.79 2216L5140.23 2216C5133.03 2216 5125.82 2218.76 5120.67 2223.92L5078.12 2266.98C5075.37 2269.73 5074 2273.18 5074 2276.97L5074 2312.44C5074 2327.6 5086.35 2340 5101.45 2340L5104.89 2340C5104.89 2318.99 5121.7 2302.11 5142.64 2302.11 5163.57 2302.11 5180.39 2318.99 5180.39 2340L5269.61 2340C5269.61 2318.99 5286.43 2302.11 5307.36 2302.11 5328.3 2302.11 5345.11 2318.99 5345.11 2340L5362.27 2340C5369.82 2340 5376 2333.8 5376 2326.22L5376 2305.56C5376 2286.61 5360.56 2271.11 5341.68 2271.11Z" fill="#0070C0" fill-rule="evenodd"/></g></svg>