<svg width="359" height="317" xmlns="http://www.w3.org/2000/svg" xmlns:xlink="http://www.w3.org/1999/xlink" xml:space="preserve" overflow="hidden"><defs><filter id="fx0" x="-10%" y="-10%" width="120%" height="120%" filterUnits="userSpaceOnUse" primitiveUnits="userSpaceOnUse"><feComponentTransfer color-interpolation-filters="sRGB"><feFuncR type="discrete" tableValues="0 0"/><feFuncG type="discrete" tableValues="0 0"/><feFuncB type="discrete" tableValues="0 0"/><feFuncA type="linear" slope="0.278431" intercept="0"/></feComponentTransfer><feGaussianBlur stdDeviation="5.97676 5.97676"/></filter><filter id="fx1" x="-10%" y="-10%" width="120%" height="120%" filterUnits="userSpaceOnUse" primitiveUnits="userSpaceOnUse"><feComponentTransfer color-interpolation-filters="sRGB"><feFuncR type="discrete" tableValues="0 0"/><feFuncG type="discrete" tableValues="0 0"/><feFuncB type="discrete" tableValues="0 0"/><feFuncA type="linear" slope="0.278431" intercept="0"/></feComponentTransfer><feGaussianBlur stdDeviation="6.04634 6.04634"/></filter><filter id="fx2" x="-10%" y="-10%" width="120%" height="120%" filterUnits="userSpaceOnUse" primitiveUnits="userSpaceOnUse"><feComponentTransfer color-interpolation-filters="sRGB"><feFuncR type="discrete" tableValues="0 0"/><feFuncG type="discrete" tableValues="0 0"/><feFuncB type="discrete" tableValues="0 0"/><feFuncA type="linear" slope="0.278431" intercept="0"/></feComponentTransfer><feGaussianBlur stdDeviation="6.04634 6.04634"/></filter><filter id="fx3" x="-10%" y="-10%" width="120%" height="120%" filterUnits="userSpaceOnUse" primitiveUnits="userSpaceOnUse"><feComponentTransfer color-interpolation-filters="sRGB"><feFuncR type="discrete" tableValues="0 0"/><feFuncG type="discrete" tableValues="0 0"/><feFuncB type="discrete" tableValues="0 0"/><feFuncA type="linear" slope="0.278431" intercept="0"/></feComponentTransfer><feGaussianBlur stdDeviation="6.03247 6.01435"/></filter><clipPath id="clip4"><rect x="4060" y="2165" width="359" height="317"/></clipPath><clipPath id="clip5"><rect x="0" y="0" width="53" height="53"/></clipPath><clipPath id="clip6"><rect x="0" y="0" width="63" height="63"/></clipPath><clipPath id="clip7"><rect x="0" y="0" width="63" height="63"/></clipPath><clipPath id="clip8"><rect x="0" y="0" width="111" height="82"/></clipPath></defs><g clip-path="url(#clip4)" transform="translate(-4060 -2165)"><g filter="url(#fx0)" transform="matrix(3.01887 0 0 3.01887 4169 2166)"><g clip-path="url(#clip5)"><path d="M34.3939 26.4411C34.3939 30.8318 30.8346 34.3911 26.4439 34.3911 22.0532 34.3911 18.494 30.8318 18.494 26.4411 18.494 22.0504 22.0532 18.4911 26.4439 18.4911 30.8346 18.4911 34.3939 22.0504 34.3939 26.4411Z" fill="#0070C0" fill-rule="evenodd"/></g></g><path d="M4343 2189C4343 2202.26 4332.25 2213 4319 2213 4305.75 2213 4295 2202.26 4295 2189 4295 2175.75 4305.75 2165 4319 2165 4332.25 2165 4343 2175.75 4343 2189Z" fill="#0070C0" fill-rule="evenodd"/><g filter="url(#fx1)" transform="matrix(2.98413 0 0 2.98413 4059 2296)"><g clip-path="url(#clip6)"><path d="M44.1772 31.4404C44.1772 38.4733 38.4761 44.1745 31.4432 44.1745 24.4103 44.1745 18.7092 38.4733 18.7092 31.4404 18.7092 24.4076 24.4103 18.7064 31.4432 18.7064 38.4761 18.7064 44.1772 24.4076 44.1772 31.4404Z" fill="#0070C0" fill-rule="evenodd"/></g></g><path d="M4261 2333C4261 2353.99 4243.99 2371 4223 2371 4202.01 2371 4185 2353.99 4185 2333 4185 2312.01 4202.01 2295 4223 2295 4243.99 2295 4261 2312.01 4261 2333Z" fill="#0070C0" fill-rule="evenodd"/><g filter="url(#fx2)" transform="matrix(2.98413 0 0 2.98413 4217 2296)"><g clip-path="url(#clip7)"><path d="M44.1771 31.4404C44.1771 38.4733 38.4759 44.1745 31.4431 44.1745 24.4102 44.1745 18.709 38.4733 18.709 31.4404 18.709 24.4076 24.4102 18.7064 31.4431 18.7064 38.4759 18.7064 44.1771 24.4076 44.1771 31.4404Z" fill="#0070C0" fill-rule="evenodd"/></g></g><path d="M4419 2333C4419 2353.99 4401.99 2371 4381 2371 4360.01 2371 4343 2353.99 4343 2333 4343 2312.01 4360.01 2295 4381 2295 4401.99 2295 4419 2312.01 4419 2333Z" fill="#0070C0" fill-rule="evenodd"/><g filter="url(#fx3)" transform="matrix(2.99099 0 0 3 4059 2214)"><g clip-path="url(#clip8)"><path d="M61.4196 37.8245 55.6732 37.2512 61.0749 27.9656 73.3722 34.6146C73.2573 34.7292 73.2573 34.8439 73.1423 34.9585L63.4883 40.3465 63.4883 40.1173C63.4883 38.9709 62.5689 37.9391 61.4196 37.8245ZM84.1755 42.6393C86.3592 42.6393 88.4279 43.0979 90.2667 43.9003 91.416 41.8368 92.2205 39.4294 92.2205 36.9074 92.2205 29.3412 86.0143 23.1508 78.429 23.1508 76.82 23.1508 75.326 23.4946 73.8319 23.9532 74.4066 25.0996 74.7513 26.3606 74.8663 27.7363L59.3509 19.253C59.1211 19.1383 58.8912 19.0238 58.6613 19.0238 56.0181 17.992 53.0299 18.9091 51.5358 21.4311L43.4908 35.1877C43.3759 35.417 43.2609 35.761 43.1461 35.9903L18.6662 33.4682 18.6662 38.0538 35.9055 43.3271C42.5714 45.2759 47.3984 51.4664 47.3984 58.6887 47.3984 60.2937 47.1685 61.7839 46.7088 63.2743L68.7751 63.2743C68.3153 61.7839 68.0855 60.2937 68.0855 58.6887 68.0855 49.8615 75.326 42.6393 84.1755 42.6393Z" fill="#0070C0" fill-rule="evenodd"/></g></g><path d="M4312.88 2270.65 4295.69 2268.93 4311.84 2241.07 4348.62 2261.02C4348.28 2261.37 4348.28 2261.71 4347.94 2262.05L4319.06 2278.22 4319.06 2277.53C4319.06 2274.09 4316.31 2270.99 4312.88 2270.65ZM4380.94 2285.1C4387.47 2285.1 4393.66 2286.47 4399.16 2288.88 4402.59 2282.69 4405 2275.47 4405 2267.9 4405 2245.2 4386.44 2226.63 4363.75 2226.63 4358.94 2226.63 4354.47 2227.66 4350 2229.04 4351.72 2232.48 4352.75 2236.26 4353.09 2240.39L4306.69 2214.94C4306 2214.59 4305.31 2214.25 4304.62 2214.25 4296.72 2211.15 4287.78 2213.9 4283.31 2221.47L4259.25 2262.74C4258.91 2263.43 4258.56 2264.46 4258.22 2265.15L4185 2257.58 4185 2271.34 4236.56 2287.16C4256.5 2293.01 4270.94 2311.58 4270.94 2333.24 4270.94 2338.06 4270.25 2342.53 4268.88 2347L4334.88 2347C4333.5 2342.53 4332.81 2338.06 4332.81 2333.24 4332.81 2306.76 4354.47 2285.1 4380.94 2285.1Z" fill="#0070C0" fill-rule="evenodd"/></g></svg>