<svg width="427" height="280" xmlns="http://www.w3.org/2000/svg" xmlns:xlink="http://www.w3.org/1999/xlink" xml:space="preserve" overflow="hidden"><defs><filter id="fx0" x="-10%" y="-10%" width="120%" height="120%" filterUnits="userSpaceOnUse" primitiveUnits="userSpaceOnUse"><feComponentTransfer color-interpolation-filters="sRGB"><feFuncR type="discrete" tableValues="0 0"/><feFuncG type="discrete" tableValues="0 0"/><feFuncB type="discrete" tableValues="0 0"/><feFuncA type="linear" slope="0.278431" intercept="0"/></feComponentTransfer><feGaussianBlur stdDeviation="5.97676 6.05171"/></filter><filter id="fx1" x="-10%" y="-10%" width="120%" height="120%" filterUnits="userSpaceOnUse" primitiveUnits="userSpaceOnUse"><feComponentTransfer color-interpolation-filters="sRGB"><feFuncR type="discrete" tableValues="0 0"/><feFuncG type="discrete" tableValues="0 0"/><feFuncB type="discrete" tableValues="0 0"/><feFuncA type="linear" slope="0.278431" intercept="0"/></feComponentTransfer><feGaussianBlur stdDeviation="5.97676 6.05171"/></filter><filter id="fx2" x="-10%" y="-10%" width="120%" height="120%" filterUnits="userSpaceOnUse" primitiveUnits="userSpaceOnUse"><feComponentTransfer color-interpolation-filters="sRGB"><feFuncR type="discrete" tableValues="0 0"/><feFuncG type="discrete" tableValues="0 0"/><feFuncB type="discrete" tableValues="0 0"/><feFuncA type="linear" slope="0.278431" intercept="0"/></feComponentTransfer><feGaussianBlur stdDeviation="5.99457 6.01435"/></filter><filter id="fx3" x="-10%" y="-10%" width="120%" height="120%" filterUnits="userSpaceOnUse" primitiveUnits="userSpaceOnUse"><feComponentTransfer color-interpolation-filters="sRGB"><feFuncR type="discrete" tableValues="0 0"/><feFuncG type="discrete" tableValues="0 0"/><feFuncB type="discrete" tableValues="0 0"/><feFuncA type="linear" slope="0.278431" intercept="0"/></feComponentTransfer><feGaussianBlur stdDeviation="5.98544 5.98876"/></filter><filter id="fx4" x="-10%" y="-10%" width="120%" height="120%" filterUnits="userSpaceOnUse" primitiveUnits="userSpaceOnUse"><feComponentTransfer color-interpolation-filters="sRGB"><feFuncR type="discrete" tableValues="0 0"/><feFuncG type="discrete" tableValues="0 0"/><feFuncB type="discrete" tableValues="0 0"/><feFuncA type="linear" slope="0.278431" intercept="0"/></feComponentTransfer><feGaussianBlur stdDeviation="5.99457 5.97676"/></filter><clipPath id="clip5"><rect x="5794" y="2199" width="427" height="280"/></clipPath><clipPath id="clip6"><rect x="0" y="0" width="53" height="54"/></clipPath><clipPath id="clip7"><rect x="0" y="0" width="53" height="54"/></clipPath><clipPath id="clip8"><rect x="0" y="0" width="101" height="65"/></clipPath><clipPath id="clip9"><rect x="0" y="0" width="69" height="78"/></clipPath><clipPath id="clip10"><rect x="0" y="0" width="101" height="53"/></clipPath></defs><g clip-path="url(#clip5)" transform="translate(-5794 -2199)"><g filter="url(#fx0)" transform="matrix(3.01887 0 0 2.98148 5824 2320)"><g clip-path="url(#clip6)" transform="translate(2.27374e-13 0)"><path d="M15.9 8.11565C15.9 12.5979 12.3407 16.2313 7.95002 16.2313 3.5593 16.2313 0 12.5979 0 8.11565 0 3.63345 3.5593 0 7.95002 0 12.3407 0 15.9 3.63345 15.9 8.11565Z" fill="#0070C0" fill-rule="evenodd" transform="matrix(1 0 0 1.01254 18.4938 18.7229)"/></g></g><path d="M5998 2343.5C5998 2357.03 5987.25 2368 5974 2368 5960.75 2368 5950 2357.03 5950 2343.5 5950 2329.97 5960.75 2319 5974 2319 5987.25 2319 5998 2329.97 5998 2343.5Z" fill="#0070C0" fill-rule="evenodd"/><g filter="url(#fx1)" transform="matrix(3.01887 0 0 2.98148 6023 2320)"><g clip-path="url(#clip7)" transform="translate(2.27374e-13 0)"><path d="M15.9 8.11565C15.9 12.5979 12.3407 16.2313 7.95002 16.2313 3.5593 16.2313 0 12.5979 0 8.11565 0 3.63345 3.5593 0 7.95002 0 12.3407 0 15.9 3.63345 15.9 8.11565Z" fill="#0070C0" fill-rule="evenodd" transform="matrix(1 0 0 1.01254 18.4939 18.7229)"/></g></g><path d="M6197 2343.5C6197 2357.03 6186.25 2368 6173 2368 6159.75 2368 6149 2357.03 6149 2343.5 6149 2329.97 6159.75 2319 6173 2319 6186.25 2319 6197 2329.97 6197 2343.5Z" fill="#0070C0" fill-rule="evenodd"/><g filter="url(#fx2)" transform="matrix(3.0099 0 0 3 5793 2200)"><g clip-path="url(#clip8)" transform="matrix(1 0 0 1 0 -1.13687e-13)"><path d="M18.5488 18.6075 82.3382 18.6075 82.3382 46.2742 18.5488 46.2742Z" fill="#0070C0" fill-rule="evenodd"/></g></g><path d="M5919 2199 6111 2199 6111 2282 5919 2282Z" fill="#0070C0" fill-rule="evenodd"/><g filter="url(#fx3)" transform="matrix(3.01449 0 0 3.01282 5999 2221)"><g clip-path="url(#clip9)" transform="matrix(1 0 0 1 0 -1.13687e-13)"><path d="M23.0699 23.0644 29.8941 23.0644C31.9413 23.0644 33.7611 24.4253 34.2161 26.3532L36.4908 34.1781C36.4908 34.2915 36.6046 34.2915 36.6046 34.4049L23.0699 34.4049 23.0699 23.0644ZM29.8941 18.5283 18.5205 18.5283 18.5205 34.4049 18.5205 41.2091 18.5205 59.3538 23.0699 59.3538C23.0699 53.1166 28.1881 48.0134 34.4435 48.0134 40.6991 48.0134 45.8172 53.1166 45.8172 59.3538 48.3194 59.3538 50.3666 57.3125 50.3666 54.8176L50.3666 43.4772C50.3666 42.003 49.6842 40.7555 48.5468 39.8483L42.5188 35.3121C41.7227 34.7451 41.154 33.8379 40.9264 32.9307L38.6517 25.1057C37.5144 21.25 33.8749 18.5283 29.8941 18.5283Z" fill="#0070C0" fill-rule="evenodd"/></g></g><path d="M6138.71 2233.67 6159.29 2233.67C6165.46 2233.67 6170.94 2237.77 6172.31 2243.58L6179.17 2267.15C6179.17 2267.49 6179.51 2267.49 6179.51 2267.83L6138.71 2267.83 6138.71 2233.67ZM6159.29 2220 6125 2220 6125 2267.83 6125 2288.33 6125 2343 6138.71 2343C6138.71 2324.21 6154.14 2308.83 6173 2308.83 6191.86 2308.83 6207.29 2324.21 6207.29 2343 6214.83 2343 6221 2336.85 6221 2329.33L6221 2295.17C6221 2290.73 6218.94 2286.97 6215.51 2284.23L6197.34 2270.57C6194.94 2268.86 6193.23 2266.13 6192.54 2263.39L6185.69 2239.82C6182.26 2228.2 6171.29 2220 6159.29 2220Z" fill="#0070C0" fill-rule="evenodd"/><g filter="url(#fx4)" transform="matrix(3.0099 0 0 3.01887 5793 2296)"><g clip-path="url(#clip10)" transform="matrix(1 0 0 1 0 1.13687e-13)"><path d="M82.3381 34.3911 48.1652 34.3911C48.1652 28.1448 43.0394 23.034 36.7743 23.034 30.5093 23.034 25.3833 28.1448 25.3833 34.3911L18.5487 34.3911 18.5487 18.4911 82.3381 18.4911 82.3381 34.3911Z" fill="#0070C0" fill-rule="evenodd"/></g></g><path d="M6111 2343 6008.14 2343C6008.14 2324.14 5992.71 2308.71 5973.86 2308.71 5955 2308.71 5939.57 2324.14 5939.57 2343L5919 2343 5919 2295 6111 2295 6111 2343Z" fill="#0070C0" fill-rule="evenodd"/></g></svg>