<svg width="67" height="67" xmlns="http://www.w3.org/2000/svg" xmlns:xlink="http://www.w3.org/1999/xlink" xml:space="preserve" overflow="hidden"><g transform="translate(-709 -476)"><path d="M763.819 491.941C756.417 491.351 749.514 487.974 744.507 482.491 743.562 481.397 741.91 481.275 740.816 482.219 740.719 482.303 740.628 482.393 740.544 482.491 735.537 487.974 728.634 491.351 721.232 491.941 719.856 492.07 718.808 493.23 718.818 494.611L718.818 501.348C718.818 515.995 728.133 529.393 741.067 537.683 741.956 538.254 743.095 538.254 743.984 537.683 756.918 529.391 766.233 515.995 766.233 501.348L766.233 494.611C766.243 493.23 765.195 492.07 763.819 491.941ZM761.696 501.348C761.696 513.004 754.753 524.761 743.122 532.808L742.526 533.22 741.93 532.808C730.299 524.761 723.354 513 723.354 501.348L723.354 496.288 724.236 496.148C730.809 495.109 736.926 492.146 741.816 487.634L742.525 486.98 743.235 487.634C748.125 492.146 754.242 495.109 760.814 496.148L761.696 496.288Z" fill="#D7E4BD"/><path d="M742.525 489.81C737.679 494.048 731.779 496.899 725.448 498.063L725.448 501.348C725.448 512.115 731.818 523.028 742.526 530.668 753.233 523.029 759.602 512.116 759.602 501.348L759.602 498.063C753.271 496.899 747.371 494.048 742.525 489.81ZM740.733 517.061 733.676 510.003 736.074 507.604 740.733 512.264 750.275 502.722 752.673 505.121Z" fill="#D7E4BD"/></g></svg>