<svg width="66" height="67" xmlns="http://www.w3.org/2000/svg" xmlns:xlink="http://www.w3.org/1999/xlink" xml:space="preserve" overflow="hidden"><g transform="translate(-711 -547)"><path d="M54.0011 15.7032C46.7092 15.1223 39.9096 11.7951 34.9766 6.39375 34.0466 5.31598 32.4191 5.19611 31.3413 6.12601 31.2456 6.20857 31.1562 6.29806 31.0736 6.39375 26.1405 11.7951 19.341 15.1223 12.0491 15.7032 10.6941 15.8302 9.66151 16.9727 9.67175 18.3336L9.67175 24.97C9.67175 39.3979 18.8478 52.5958 31.5886 60.7626 32.4637 61.325 33.5865 61.325 34.4616 60.7626 47.2024 52.5938 56.3784 39.3979 56.3784 24.97L56.3784 18.3336C56.3887 16.9727 55.3561 15.8302 54.0011 15.7032ZM51.9097 24.97C51.9097 36.4513 45.0697 48.0336 33.6126 55.9598L33.0254 56.3661 32.439 55.9598C20.9811 48.0329 14.1398 36.4478 14.1398 24.97L14.1398 19.9849 15.0088 19.8474C21.4831 18.8237 27.5091 15.905 32.3263 11.4599L33.0247 10.8164 33.7239 11.4599C38.5409 15.905 44.5666 18.8237 51.0407 19.8474L51.9097 19.9849Z" fill="#D9D9D9" transform="matrix(1 0 0 1.01515 711 547)"/><path d="M33.0247 13.6042C28.2514 17.779 22.4394 20.5875 16.2023 21.7332L16.2023 24.97C16.2023 35.5761 22.4771 46.3258 33.0254 53.8519 43.5724 46.3272 49.8472 35.5768 49.8472 24.97L49.8472 21.7332C43.6101 20.5875 37.7981 17.779 33.0247 13.6042ZM31.2592 40.4477 24.3072 33.495 26.6695 31.1327 31.2592 35.7225 40.6587 26.323 43.021 28.6859Z" fill="#D9D9D9" transform="matrix(1 0 0 1.01515 711 547)"/></g></svg>