<svg width="67" height="67" xmlns="http://www.w3.org/2000/svg" xmlns:xlink="http://www.w3.org/1999/xlink" xml:space="preserve" overflow="hidden"><g transform="translate(-714 -632)"><path d="M768.819 647.941C761.417 647.351 754.514 643.974 749.507 638.491 748.562 637.397 746.91 637.275 745.816 638.219 745.719 638.303 745.628 638.393 745.544 638.491 740.537 643.974 733.634 647.351 726.232 647.941 724.856 648.07 723.808 649.23 723.818 650.611L723.818 657.348C723.818 671.995 733.133 685.393 746.067 693.683 746.956 694.254 748.095 694.254 748.984 693.683 761.918 685.391 771.233 671.995 771.233 657.348L771.233 650.611C771.243 649.23 770.195 648.07 768.819 647.941ZM766.696 657.348C766.696 669.004 759.753 680.761 748.122 688.808L747.526 689.22 746.93 688.808C735.299 680.761 728.354 669 728.354 657.348L728.354 652.288 729.236 652.148C735.809 651.109 741.926 648.146 746.816 643.634L747.525 642.98 748.235 643.634C753.125 648.146 759.242 651.109 765.814 652.148L766.696 652.288Z" fill="#C4BD97"/><path d="M747.525 645.81C742.679 650.048 736.779 652.899 730.448 654.063L730.448 657.348C730.448 668.115 736.818 679.028 747.526 686.668 758.233 679.029 764.602 668.116 764.602 657.348L764.602 654.063C758.271 652.899 752.371 650.048 747.525 645.81ZM745.733 673.061 738.676 666.003 741.074 663.604 745.733 668.264 755.275 658.722 757.673 661.121Z" fill="#C4BD97"/></g></svg>