<svg width="67" height="67" xmlns="http://www.w3.org/2000/svg" xmlns:xlink="http://www.w3.org/1999/xlink" xml:space="preserve" overflow="hidden"><g transform="translate(-896 -395)"><path d="M950.819 410.941C943.417 410.351 936.514 406.974 931.507 401.491 930.562 400.397 928.91 400.275 927.816 401.219 927.719 401.303 927.628 401.393 927.544 401.491 922.537 406.974 915.634 410.351 908.232 410.941 906.856 411.07 905.808 412.23 905.818 413.611L905.818 420.348C905.818 434.995 915.133 448.393 928.067 456.683 928.956 457.254 930.095 457.254 930.984 456.683 943.918 448.391 953.233 434.995 953.233 420.348L953.233 413.611C953.243 412.23 952.195 411.07 950.819 410.941ZM948.696 420.348C948.696 432.004 941.753 443.761 930.122 451.808L929.526 452.22 928.93 451.808C917.299 443.761 910.354 432 910.354 420.348L910.354 415.288 911.236 415.148C917.809 414.109 923.926 411.146 928.816 406.634L929.525 405.98 930.235 406.634C935.125 411.146 941.242 414.109 947.814 415.148L948.696 415.288Z" fill="#E6B9B8"/><path d="M929.525 408.81C924.679 413.048 918.779 415.899 912.448 417.063L912.448 420.348C912.448 431.115 918.818 442.028 929.526 449.668 940.233 442.029 946.602 431.116 946.602 420.348L946.602 417.063C940.271 415.899 934.371 413.048 929.525 408.81ZM927.733 436.061 920.676 429.003 923.074 426.604 927.733 431.264 937.275 421.722 939.673 424.121Z" fill="#E6B9B8"/></g></svg>