<svg width="66" height="66" xmlns="http://www.w3.org/2000/svg" xmlns:xlink="http://www.w3.org/1999/xlink" xml:space="preserve" overflow="hidden"><g transform="translate(-903 -471)"><path d="M957.001 486.703C949.709 486.122 942.91 482.795 937.977 477.394 937.047 476.316 935.419 476.196 934.341 477.126 934.246 477.209 934.156 477.298 934.074 477.394 929.141 482.795 922.341 486.122 915.049 486.703 913.694 486.83 912.661 487.973 912.672 489.334L912.672 495.97C912.672 510.398 921.848 523.596 934.589 531.763 935.464 532.325 936.586 532.325 937.462 531.763 950.202 523.594 959.378 510.398 959.378 495.97L959.378 489.334C959.389 487.973 958.356 486.83 957.001 486.703ZM954.91 495.97C954.91 507.451 948.07 519.034 936.613 526.96L936.025 527.366 935.439 526.96C923.981 519.033 917.14 507.448 917.14 495.97L917.14 490.985 918.009 490.847C924.483 489.824 930.509 486.905 935.326 482.46L936.025 481.816 936.724 482.46C941.541 486.905 947.567 489.824 954.041 490.847L954.91 490.985Z" fill="#FAC090"/><path d="M936.025 484.604C931.251 488.779 925.439 491.587 919.202 492.733L919.202 495.97C919.202 506.576 925.477 517.326 936.025 524.852 946.572 517.327 952.847 506.577 952.847 495.97L952.847 492.733C946.61 491.587 940.798 488.779 936.025 484.604ZM934.259 511.448 927.307 504.495 929.669 502.133 934.259 506.723 943.659 497.323 946.021 499.686Z" fill="#FAC090"/></g></svg>