<svg width="35" height="34" xmlns="http://www.w3.org/2000/svg" xmlns:xlink="http://www.w3.org/1999/xlink" xml:space="preserve" overflow="hidden"><g transform="translate(-1409 -909)"><path d="M14.2375 23.1271C13.7417 23.1271 13.2812 23.0208 12.8208 22.8438 12.0771 22.5604 11.4396 22.0292 10.9792 21.3562 10.9437 21.3562 10.8729 21.3208 10.8375 21.3208L6.5875 29.6792 10.1646 28.8646 11.9708 32.2292 16.3979 23.5875C15.9021 23.5167 15.4062 23.3042 14.9812 23.0562 14.7333 23.0917 14.4854 23.1271 14.2375 23.1271Z" transform="matrix(1.02941 0 0 1 1409 909)"/><path d="M21.6396 22.6667C21.1437 22.8792 20.6125 22.9854 20.0812 22.9854 19.7979 22.9854 19.55 22.95 19.2667 22.9146 18.7354 23.2687 18.1333 23.5167 17.4958 23.5875L22.1708 32.0167 24.0125 29.0063 27.625 29.6083 23.1271 21.5333C22.7375 22.0292 22.2417 22.4187 21.6396 22.6667Z" transform="matrix(1.02941 0 0 1 1409 909)"/><path d="M16.8937 18.275C13.5292 18.275 10.7667 15.5479 10.7667 12.1479 10.7667 8.74792 13.5292 6.02083 16.8937 6.02083 20.2583 6.02083 23.0208 8.74792 23.0208 12.1479 23.0208 15.5479 20.2583 18.275 16.8937 18.275ZM27.3417 12.1479C27.3417 11.3687 27.0229 10.6604 26.4917 10.1646 26.775 9.49167 26.8104 8.7125 26.4917 8.00417 26.2083 7.36667 25.7125 6.87083 25.1104 6.62292 25.075 5.98542 24.8271 5.34792 24.3312 4.85208 23.7646 4.28542 23.0562 4.0375 22.3125 4.07292 22.0646 3.4 21.5333 2.83333 20.7896 2.55 20.1521 2.30208 19.4438 2.30208 18.8417 2.55 18.3458 2.125 17.7437 1.84167 17.0354 1.84167 16.2563 1.84167 15.5479 2.16042 15.0521 2.69167 14.3792 2.40833 13.6 2.37292 12.8917 2.69167 12.2542 2.975 11.7583 3.47083 11.5104 4.07292 10.8729 4.10833 10.2354 4.35625 9.73958 4.85208 9.17292 5.41875 8.925 6.12708 8.96042 6.87083 8.2875 7.11875 7.72083 7.65 7.4375 8.39375 7.18958 9.03125 7.18958 9.73958 7.4375 10.3417 7.0125 10.8375 6.72917 11.4396 6.72917 12.1479 6.72917 12.9271 7.04792 13.6354 7.57917 14.1313 7.29583 14.8042 7.26042 15.5833 7.57917 16.2917 7.8625 16.9292 8.35833 17.425 8.96042 17.6729 8.99583 18.3104 9.24375 18.9479 9.73958 19.4438 10.3062 20.0104 11.0146 20.2583 11.7583 20.2229 12.0063 20.8958 12.5375 21.4625 13.2812 21.7458 13.9187 21.9937 14.6271 21.9937 15.2292 21.7458 15.725 22.1708 16.3271 22.4542 17.0354 22.4542 17.8146 22.4542 18.5229 22.1354 19.0187 21.6042 19.6917 21.8875 20.4708 21.9229 21.1792 21.6042 21.8167 21.3208 22.3125 20.825 22.5604 20.2229 23.1979 20.1875 23.8354 19.9396 24.3312 19.4438 24.8979 18.8771 25.1458 18.1687 25.1104 17.425 25.7833 17.1771 26.35 16.6458 26.6333 15.9021 26.8813 15.2646 26.8813 14.5562 26.6333 13.9542 27.0583 13.4937 27.3417 12.8562 27.3417 12.1479Z" transform="matrix(1.02941 0 0 1 1409 909)"/></g></svg>