<svg width="37" height="37" xmlns="http://www.w3.org/2000/svg" xmlns:xlink="http://www.w3.org/1999/xlink" xml:space="preserve" overflow="hidden"><g transform="translate(-1612 -905)"><path d="M1630.5 925.581C1627.99 925.581 1625.95 927.624 1625.95 930.129 1625.95 932.634 1627.99 934.716 1630.5 934.716 1633.01 934.716 1635.05 932.673 1635.05 930.168 1635.05 927.662 1633.01 925.581 1630.5 925.581"/><path d="M1630.5 921.689C1625.84 921.689 1622.02 925.504 1622.02 930.168 1622.02 934.831 1625.84 938.647 1630.5 938.647 1635.16 938.647 1638.98 934.831 1638.98 930.168 1638.98 925.504 1635.16 921.689 1630.5 921.689M1630.5 936.334C1627.11 936.334 1624.33 933.559 1624.33 930.168 1624.33 926.776 1627.11 924.001 1630.5 924.001 1633.89 924.001 1636.67 926.776 1636.67 930.168 1636.67 933.559 1633.89 936.334 1630.5 936.334"/><path d="M1632.58 920.34C1634.12 920.686 1635.55 921.342 1636.78 922.305L1641.52 911.591 1639.36 908.353 1637.98 908.353 1634.97 914.944 1632.58 920.34Z"/><path d="M1628.42 920.34 1626.03 914.944 1623.02 908.353 1621.64 908.353 1619.52 911.591 1624.26 922.305C1625.45 921.38 1626.88 920.686 1628.42 920.34"/><path d="M1634.16 913.017 1636.28 908.392 1624.72 908.392 1626.84 913.017Z"/></g></svg>