<svg width="59" height="59" xmlns="http://www.w3.org/2000/svg" xmlns:xlink="http://www.w3.org/1999/xlink" xml:space="preserve" overflow="hidden"><g transform="translate(-1115 -836)"><path d="M1140.81 852.594 1150.65 852.594 1150.65 850.75C1150.65 849.398 1149.54 848.292 1148.19 848.292L1122.38 848.292C1121.02 848.292 1119.92 849.398 1119.92 850.75L1119.92 867.344C1119.92 868.696 1121.02 869.802 1122.38 869.802L1126.06 869.802 1126.06 875.948 1132.21 869.802 1135.9 869.802 1135.9 857.51C1135.9 854.806 1138.11 852.594 1140.81 852.594Z"/><path d="M1166.62 855.052 1140.81 855.052C1139.46 855.052 1138.35 856.158 1138.35 857.51L1138.35 874.104C1138.35 875.456 1139.46 876.562 1140.81 876.562L1156.79 876.562 1162.94 882.708 1162.94 876.562 1166.62 876.562C1167.98 876.562 1169.08 875.456 1169.08 874.104L1169.08 857.51C1169.08 856.158 1167.98 855.052 1166.62 855.052Z"/></g></svg>