<svg width="54" height="54" xmlns="http://www.w3.org/2000/svg" xmlns:xlink="http://www.w3.org/1999/xlink" xml:space="preserve" overflow="hidden"><g transform="translate(-480 -825)"><path d="M515.325 859.481C515.606 858.919 515.438 858.244 514.875 857.963 514.312 857.681 513.638 857.85 513.356 858.412L511.106 862.406 512.625 856.388C512.794 855.769 512.4 855.15 511.781 855.037 511.163 854.869 510.544 855.263 510.431 855.881L509.138 861.056 509.138 855.431C509.138 854.812 508.631 854.306 508.013 854.306 507.394 854.306 506.888 854.812 506.888 855.431L506.888 861.45 505.594 855.881C505.481 855.263 504.862 854.925 504.244 855.037 503.625 855.15 503.288 855.769 503.4 856.388L504.975 863.081C504.919 863.869 504.75 864.656 504.581 865.331 504.581 865.331 504.581 865.275 504.525 865.275 503.569 863.812 502.05 862.519 500.587 862.125 500.025 861.956 499.462 862.294 499.294 862.856 499.125 863.419 499.462 863.981 500.025 864.15 500.756 864.319 501.431 865.388 502.163 866.513 503.062 867.919 504.188 869.55 505.875 870.506L505.875 876.525 510.825 876.525 510.825 870.169C512.681 869.213 512.906 865.219 512.963 863.7L515.325 859.481Z" fill="#31859C"/><path d="M495.469 859.931 500.362 859.987C500.362 859.987 500.362 859.987 500.362 859.987 500.981 859.987 501.487 859.481 501.487 858.862 501.487 858.244 500.981 857.737 500.362 857.737L495.806 857.681 501.769 856.162C502.388 855.994 502.725 855.375 502.556 854.812 502.388 854.194 501.769 853.856 501.206 854.025L496.031 855.375 500.981 852.675C501.544 852.394 501.712 851.719 501.431 851.156 501.15 850.594 500.475 850.425 499.913 850.706L494.625 853.519 498.9 849.75C499.35 849.356 499.406 848.625 499.013 848.175 498.619 847.725 497.888 847.669 497.438 848.062L492.263 852.562C491.531 852.9 490.8 853.125 490.069 853.237 490.069 853.237 490.069 853.181 490.125 853.181 490.969 851.606 491.362 849.694 491.025 848.231 490.913 847.669 490.294 847.331 489.731 847.444 489.169 847.556 488.831 848.175 488.944 848.737 489.112 849.469 488.55 850.537 487.931 851.719 487.144 853.181 486.244 854.925 486.188 856.894L480.9 859.763 483.263 864.094 488.831 861.112C490.519 862.294 494.119 860.606 495.469 859.931Z" fill="#31859C"/><path d="M496.087 841.594 497.269 846.319C497.381 846.825 497.831 847.162 498.337 847.162 498.45 847.162 498.506 847.162 498.619 847.106 499.237 846.938 499.575 846.375 499.462 845.756L498.394 841.312 501.375 846.656C501.6 847.05 501.938 847.219 502.388 847.219 502.556 847.219 502.781 847.162 502.95 847.05 503.513 846.769 503.681 846.037 503.4 845.531L500.812 840.862 504.638 844.969C504.862 845.194 505.144 845.306 505.481 845.306 505.763 845.306 506.044 845.194 506.269 845.025 506.719 844.575 506.719 843.9 506.325 843.45L502.219 839.062 507 842.269C507.169 842.381 507.394 842.438 507.619 842.438 507.956 842.438 508.35 842.269 508.575 841.931 508.913 841.425 508.8 840.694 508.294 840.356L502.556 836.531C502.05 835.912 501.656 835.237 501.319 834.619 501.319 834.619 501.375 834.619 501.375 834.619 503.062 835.013 505.031 834.956 506.381 834.225 506.888 833.944 507.056 833.325 506.775 832.819 506.494 832.312 505.875 832.144 505.369 832.425 504.75 832.763 503.513 832.481 502.219 832.2 500.587 831.806 498.675 831.356 496.763 831.862L492.656 827.475 489.056 830.85 493.388 835.463C492.487 837.431 495.019 840.525 496.087 841.594Z" fill="#31859C"/><path d="M533.1 863.7 528.825 859.031C529.556 857.062 527.025 853.969 526.013 852.844L524.888 848.119C524.719 847.5 524.156 847.162 523.537 847.275 522.919 847.444 522.581 848.006 522.694 848.625L523.763 853.069 520.781 847.669C520.5 847.106 519.825 846.938 519.263 847.219 518.7 847.5 518.531 848.175 518.812 848.737L521.4 853.463 517.575 849.356C517.125 848.906 516.45 848.85 516 849.3 515.55 849.75 515.494 850.425 515.944 850.875L520.05 855.319 515.325 852.112C514.819 851.775 514.088 851.888 513.75 852.394 513.412 852.9 513.525 853.631 514.031 853.969L519.713 857.85C520.219 858.469 520.612 859.144 520.95 859.763 520.95 859.763 520.894 859.763 520.894 859.763 519.206 859.369 517.237 859.425 515.888 860.156 515.381 860.438 515.156 861.056 515.438 861.562 515.719 862.069 516.338 862.294 516.844 862.013 517.463 861.675 518.7 861.956 519.994 862.294 521.625 862.688 523.537 863.138 525.45 862.688L529.5 867.075 533.1 863.7Z" fill="#31859C"/><path d="M509.981 839.625C510.094 839.625 510.206 839.625 510.375 839.569L514.65 838.05 509.587 841.537C509.081 841.875 508.969 842.606 509.306 843.112 509.531 843.45 509.869 843.619 510.206 843.619 510.431 843.619 510.656 843.562 510.825 843.394L515.213 840.356 511.5 844.575C511.106 845.025 511.163 845.756 511.612 846.15 511.837 846.319 512.062 846.431 512.344 846.431 512.681 846.431 512.963 846.319 513.188 846.037L517.181 841.481 514.481 846.544C514.2 847.106 514.369 847.781 514.931 848.062 515.1 848.175 515.269 848.175 515.438 848.175 515.831 848.175 516.225 847.95 516.45 847.556L519.713 841.481C520.275 840.919 520.894 840.469 521.513 840.075 521.513 840.075 521.513 840.131 521.513 840.131 521.287 841.875 521.569 843.844 522.412 845.081 522.75 845.588 523.369 845.7 523.875 845.362 524.381 845.025 524.494 844.406 524.156 843.9 523.763 843.281 523.931 842.044 524.1 840.694 524.325 839.062 524.55 837.094 523.931 835.237L527.869 830.737 524.156 827.475 519.994 832.256C517.969 831.75 515.156 834.619 514.144 835.688L509.531 837.319C508.969 837.544 508.631 838.162 508.856 838.781 509.081 839.344 509.531 839.625 509.981 839.625Z" fill="#31859C"/></g></svg>