<svg width="48" height="48" xmlns="http://www.w3.org/2000/svg" xmlns:xlink="http://www.w3.org/1999/xlink" xml:space="preserve" overflow="hidden"><g transform="translate(-249 -860)"><path d="M291.11 866 290.89 866C290.387 866.014 289.989 866.432 290 866.935L290 870.065C289.989 870.568 290.387 870.986 290.89 871L291.11 871C291.613 870.986 292.011 870.568 292 870.065L292 866.935C292.011 866.432 291.613 866.014 291.11 866Z"/><path d="M255.11 866 254.89 866C254.387 866.014 253.989 866.432 254 866.935L254 870.065C253.989 870.568 254.387 870.986 254.89 871L255.11 871C255.613 870.986 256.011 870.568 256 870.065L256 866.935C256.011 866.432 255.613 866.014 255.11 866Z"/><path d="M292.5 867.5 292.5 869.5C293.052 869.5 293.5 869.052 293.5 868.5 293.5 867.948 293.052 867.5 292.5 867.5Z"/><path d="M253.5 869.5 253.5 867.5C252.948 867.5 252.5 867.948 252.5 868.5 252.5 869.052 252.948 869.5 253.5 869.5Z"/><path d="M288.61 864.5 288.39 864.5C287.855 864.558 287.462 865.028 287.5 865.565L287.5 867.5 258.5 867.5 258.5 865.565C258.538 865.028 258.145 864.558 257.61 864.5L257.39 864.5C256.855 864.558 256.462 865.028 256.5 865.565L256.5 871.435C256.462 871.972 256.855 872.442 257.39 872.5L257.61 872.5C258.145 872.442 258.538 871.972 258.5 871.435L258.5 869.5 261 869.5 261 877C261.003 877.712 261.383 878.369 262 878.725L269 882.85 269 887.735 261.915 892.32C261.345 892.688 261 893.321 261 894L261 903.5 265 903.5 265 895.09 269 892.5 277 892.5 281 895.09 281 903.5 285 903.5 285 894C285 893.321 284.655 892.688 284.085 892.32L277 887.735 277 882.85 284 878.725C284.617 878.369 284.997 877.712 285 877L285 869.5 287.5 869.5 287.5 871.435C287.462 871.972 287.855 872.442 288.39 872.5L288.61 872.5C289.145 872.442 289.538 871.972 289.5 871.435L289.5 865.565C289.538 865.028 289.145 864.558 288.61 864.5ZM281 875.855 274.805 879.5 271.195 879.5 265 875.855 265 869.5 281 869.5Z"/><path d="M277 874C277 876.209 275.209 878 273 878 270.791 878 269 876.209 269 874 269 871.791 270.791 870 273 870 275.209 870 277 871.791 277 874Z"/></g></svg>