<svg width="61" height="47" xmlns="http://www.w3.org/2000/svg" xmlns:xlink="http://www.w3.org/1999/xlink" xml:space="preserve" overflow="hidden"><g transform="translate(-243 -813)"><path d="M12.7292 25.4583C12.7292 19.5344 17.576 14.6875 23.5 14.6875 29.424 14.6875 34.2708 19.5344 34.2708 25.4583 34.2708 31.3823 29.424 36.2292 23.5 36.2292 17.576 36.2292 12.7292 31.3823 12.7292 25.4583ZM24.4792 11.799 24.4792 9.79167 26.4375 9.79167C26.976 9.79167 27.4167 9.35104 27.4167 8.8125 27.4167 8.27396 26.976 7.83333 26.4375 7.83333L20.5625 7.83333C20.024 7.83333 19.5833 8.27396 19.5833 8.8125 19.5833 9.35104 20.024 9.79167 20.5625 9.79167L22.5208 9.79167 22.5208 11.799C15.4219 12.2885 9.79167 18.2125 9.79167 25.4583 9.79167 29.1792 11.2604 32.5573 13.7083 35.0542L11.8479 38.726C11.6031 39.2156 11.799 39.8031 12.2885 40.0479 12.4354 40.0969 12.5823 40.1458 12.7292 40.1458 13.0719 40.1458 13.4146 39.95 13.6104 39.6073L15.226 36.376C17.5271 38.1385 20.3667 39.1667 23.5 39.1667 26.6333 39.1667 29.4729 38.1385 31.774 36.376L33.3896 39.6073C33.5854 39.95 33.9281 40.1458 34.2708 40.1458 34.4177 40.1458 34.5646 40.0969 34.7115 40.0479 35.201 39.8031 35.3969 39.2156 35.1521 38.726L33.2917 35.0542C35.6906 32.6063 37.2083 29.1792 37.2083 25.4583 37.2083 18.2125 31.5781 12.2885 24.4792 11.799Z" fill="#77933C" transform="matrix(1.29787 0 0 1 243 813)"/><path d="M22.5208 24.4792 15.6667 24.4792 15.6667 26.4375 23.5 26.4375C24.0385 26.4375 24.4792 25.9969 24.4792 25.4583L24.4792 17.625 22.5208 17.625 22.5208 24.4792Z" fill="#77933C" transform="matrix(1.29787 0 0 1 243 813)"/><path d="M39.2646 11.8479 35.201 7.78438C34.4177 7.00104 33.1938 7.00104 32.4104 7.78438L29.8646 10.2812 36.7188 17.1354 39.2646 14.5896C39.999 13.8552 39.999 12.5823 39.2646 11.8479Z" fill="#77933C" transform="matrix(1.29787 0 0 1 243 813)"/><path d="M17.1354 10.2812 14.5896 7.73542C13.8063 6.95208 12.5823 6.95208 11.799 7.73542L7.73542 11.799C6.95208 12.5823 6.95208 13.8063 7.73542 14.5896L10.2812 17.1354 17.1354 10.2812Z" fill="#77933C" transform="matrix(1.29787 0 0 1 243 813)"/></g></svg>