<svg width="48" height="48" xmlns="http://www.w3.org/2000/svg" xmlns:xlink="http://www.w3.org/1999/xlink" xml:space="preserve" overflow="hidden"><g transform="translate(-480 -924)"><path d="M505.435 928.65C509.022 932.579 513.968 935 519.271 935.423 520.256 935.515 521.007 936.346 521 937.336L521 942.162C521 952.655 514.326 962.254 505.06 968.193 504.424 968.602 503.608 968.602 502.971 968.193 493.705 962.254 487.031 952.655 487.031 942.162L487.031 937.336C487.024 936.346 487.775 935.515 488.76 935.423 494.064 935 499.009 932.579 502.596 928.65 503.273 927.866 504.456 927.779 505.24 928.455 505.31 928.515 505.375 928.58 505.435 928.65Z" fill="#E46C0A"/></g></svg>