<svg width="55" height="55" xmlns="http://www.w3.org/2000/svg" xmlns:xlink="http://www.w3.org/1999/xlink" xml:space="preserve" overflow="hidden"><g transform="translate(-243 -909)"><path d="M275.373 914.729C275.373 917.26 273.321 919.312 270.79 919.312 268.259 919.312 266.207 917.26 266.207 914.729 266.207 912.198 268.259 910.146 270.79 910.146 273.321 910.146 275.373 912.198 275.373 914.729Z" fill="#953735"/><path d="M276.233 928.215 279.04 931.649C279.245 931.899 279.5 932.103 279.789 932.248L284.826 934.769C284.826 934.774 284.826 934.779 284.826 934.784 284.826 943.787 282.53 950.561 278.524 954.177L278.524 957.125C283.875 953.516 287.011 945.812 287.109 935.281 288.335 934.968 289.075 933.719 288.762 932.493 288.598 931.85 288.163 931.31 287.57 931.013L282.279 928.367 277.432 922.445C277.123 922.069 276.701 921.802 276.229 921.684L275.865 921.597 275.041 921.412C272.234 920.836 269.339 920.835 266.531 921.409L265.672 921.601 265.345 921.683C264.873 921.802 264.451 922.069 264.142 922.445L259.301 928.367 254.01 931.013C252.879 931.581 252.422 932.958 252.99 934.089 253.287 934.681 253.826 935.115 254.468 935.28 254.598 949.452 260.238 958.493 269.358 959.343L269.358 957.04C261.544 956.138 256.753 947.786 256.753 934.781 256.753 934.776 256.753 934.771 256.753 934.766L261.791 932.246C262.078 932.101 262.332 931.898 262.536 931.649L265.344 928.215 265.344 949.677C265.344 950.943 266.37 951.969 267.635 951.969 268.901 951.969 269.927 950.943 269.927 949.677L269.927 940.51 271.646 940.51 271.646 960.562C271.646 961.828 272.672 962.854 273.938 962.854 275.203 962.854 276.229 961.828 276.229 960.562Z" fill="#953735"/></g></svg>